<?xml version="1.0" encoding="UTF-8"?>
<!-- Generated by Pixelmator Pro 3.3.6 -->
<svg width="512" height="512" viewBox="0 0 512 512" xmlns="http://www.w3.org/2000/svg">
    <path id="Path" fill="#000000" fill-rule="evenodd" stroke="none" d="M 206.322998 349.376007 C 203.587997 356.572998 207.212006 364.605988 214.417999 367.316986 C 253.115997 381.880005 296.230988 374.570007 327.815002 349.622009 C 338.910004 340.858002 348.570007 329.927002 356.10199 317.036987 C 374.140991 286.17099 376.287994 250.437988 365.083008 219.317993 C 362.479004 212.085999 354.488007 208.343994 347.234009 210.960022 C 339.980011 213.576996 336.210999 221.561005 338.815002 228.792999 C 347.354004 252.51001 345.696014 279.618988 332.002014 303.049988 C 326.259003 312.877991 318.925995 321.165009 310.526001 327.799988 C 286.519012 346.763 253.70401 352.311005 224.320999 341.253998 C 217.115997 338.541992 209.057999 342.178986 206.322998 349.376007 Z M 179.188995 328.338013 C 185.526001 323.945007 187.106995 315.265991 182.720993 308.953003 C 163.738007 281.631989 161.139008 244.786987 178.987 214.247009 C 182.873993 207.596008 180.630005 199.072998 173.973999 195.210999 C 167.319 191.348999 158.772995 193.609009 154.886993 200.26001 C 131.354996 240.526001 134.865997 289.014008 159.772995 324.860992 C 164.158997 331.174011 172.852005 332.730988 179.188995 328.338013 Z M 199.779999 171.773987 C 202.994995 178.757019 211.279007 181.802979 218.283005 178.578003 C 243.656006 166.895996 274.102997 167.338013 300.054993 182.398987 C 306.709991 186.261993 315.256012 184.001007 319.141998 177.350006 C 323.028992 170.700012 320.785004 162.177002 314.130005 158.315002 C 280.009003 138.511993 239.944 137.960999 206.643005 153.292999 C 199.638 156.518005 196.565994 164.791992 199.779999 171.773987 Z"/>
    <path id="path1" fill="#000000" fill-rule="evenodd" stroke="none" d="M 249.432007 312.381989 C 246.272995 319.404999 238.013 322.557007 230.983002 319.42099 C 207.677994 309.027008 195.720001 289.518005 193.339005 273.912994 C 192.179001 266.312012 197.416 259.197021 205.035004 258.020996 C 212.654999 256.846008 219.770996 262.054016 220.931 269.653992 C 221.884995 275.911987 227.759995 287.449005 242.423004 293.989014 C 249.453003 297.123993 252.591003 305.359009 249.432007 312.381989 Z"/>
    <path id="path2" fill="#000000" stroke="none" d="M 286.582001 239.169983 C 290.005005 245.273987 291.109985 253.34198 290.066986 263.402008 C 289.75 266.457001 288.455994 269.197998 286.348999 270.341003 C 284.759003 271.203003 280.553986 271.191986 274.440002 263.424011 C 257.296997 241.643982 246.600006 228.815979 240.119995 221.367004 L 230.598007 211.102997 C 224.865005 205.977997 216.042007 206.471008 210.891998 212.205994 C 205.785004 217.891998 206.207001 226.596008 211.804993 231.739014 C 217.888 238.731995 235.503006 259.098022 252.475006 280.661987 C 262.415009 293.290985 275.700989 302.493011 290.769012 299.028992 C 305.029999 295.751007 313.065002 282.720001 317.007996 270.813995 L 317.613007 268.11499 C 319.272003 254.445984 318.578003 239.132996 310.945007 225.522003 C 303.062988 211.468018 289.07901 201.496002 268.832001 196.300995 C 261.372009 194.386993 253.755005 198.873993 251.819 206.322998 C 249.882004 213.772003 254.359985 221.362 261.820007 223.276001 C 276.532013 227.050995 283.247009 233.223022 286.582001 239.169983 Z"/>
    <path id="path3" fill="#000000" fill-rule="evenodd" stroke="none" d="M 449.841003 255.703979 C 449.781006 241.970001 438.575012 230.912994 424.812988 231.007019 C 411.049988 231.101013 399.942993 242.311005 400.002991 256.044983 C 400.075012 272.359985 397.355011 288.501007 392.083008 303.778015 L 391.748993 304.746002 L 391.494995 305.739014 C 389.679993 312.850006 385.13501 322.062988 379.118988 331.553009 C 373.299011 340.734009 367.13501 348.569 363.539001 352.665985 C 350.755005 367.082001 334.846985 379.187988 316.169006 387.865997 C 295.858002 397.302002 274.553986 401.623993 253.653015 401.401001 C 239.891998 401.253998 228.589005 412.268005 228.408997 426.002014 C 228.227997 439.734985 239.237 450.987 252.998993 451.132996 C 281.194 451.43399 309.894989 445.589996 337.113007 432.945007 C 362.156006 421.309998 383.612 404.998993 400.869995 385.523987 L 400.903992 385.485992 L 400.937012 385.447998 C 406.181 379.483002 413.938995 369.552002 421.218994 358.067993 C 428.152008 347.131012 435.700989 333.158997 439.516998 318.946991 C 446.384003 298.721008 449.936005 277.347992 449.841003 255.703979 Z"/>
    <path id="path4" fill="#000000" stroke="none" d="M 110.945999 262.565002 C 110.469002 248.839996 98.931999 238.127014 85.178101 238.636993 C 71.423897 239.147003 60.6605 250.686005 61.137398 264.411011 C 62.011299 289.558014 67.830803 314.916992 79.057602 339.080994 C 88.532204 359.473999 101.143997 377.479004 116.072998 392.757996 C 133.190994 410.277008 153.313004 424.17099 175.184006 434 C 187.720993 439.63501 202.485992 434.049011 208.164001 421.523987 C 213.841003 408.998993 208.279007 394.278015 195.742004 388.643005 C 179.447006 381.320007 164.494003 370.984985 151.798004 357.992004 C 140.738007 346.673004 131.360001 333.303986 124.281998 318.070007 C 115.900002 300.028992 111.594002 281.199005 110.945999 262.565002 Z"/>
    <path id="path5" fill="#000000" stroke="none" d="M 149.509995 159.200012 C 161.904007 145.845001 177.063004 134.600006 194.695007 126.40799 C 216.654007 116.205017 239.781998 111.979004 262.311005 113.016998 C 314.377991 115.416016 363.20401 145.88501 386.582001 196.203979 C 392.365997 208.651978 407.178009 214.039978 419.666992 208.238007 C 432.154999 202.434998 437.589996 187.640991 431.807007 175.192017 C 416.768005 142.822998 393.903992 116.583008 366.506012 97.654602 C 293.622986 45.21521 219.182007 60.221313 173.751007 81.328796 C 150.136993 92.299896 129.707993 107.429993 112.982002 125.455017 C 97.352997 142.296021 84.9851 161.630981 76.244202 182.421021 C 70.914902 195.096008 76.880898 209.65802 89.569702 214.945007 C 102.258003 220.231995 116.864998 214.242981 122.194 201.567017 C 128.707993 186.075012 137.912003 171.697021 149.509995 159.200012 Z"/>
</svg>
