<svg width="512" height="512" viewBox="0 0 512 512" fill="none" xmlns="http://www.w3.org/2000/svg">
<g clip-path="url(#clip0_9_2)">
<circle cx="260" cy="250" r="221" fill="#314DAF"/>
<mask id="path-2-outside-1_9_2" maskUnits="userSpaceOnUse" x="-45.2466" y="-77.2887" width="606.155" height="655.681" fill="black">
<rect fill="white" x="-45.2466" y="-77.2887" width="606.155" height="655.681"/>
<path fill-rule="evenodd" clip-rule="evenodd" d="M211.323 342.376C208.588 349.573 212.212 357.606 219.418 360.317C258.116 374.88 301.231 367.57 332.815 342.622C343.91 333.858 353.57 322.927 361.102 310.037C379.141 279.171 381.288 243.438 370.083 212.318C367.479 205.086 359.488 201.344 352.234 203.96C344.98 206.577 341.211 214.561 343.815 221.793C352.354 245.51 350.696 272.619 337.002 296.05C331.259 305.878 323.926 314.165 315.526 320.8C291.519 339.763 258.704 345.311 229.321 334.254C222.116 331.542 214.058 335.179 211.323 342.376ZM184.189 321.338C190.526 316.945 192.107 308.266 187.721 301.953C168.738 274.632 166.139 237.787 183.987 207.247C187.874 200.596 185.63 192.073 178.974 188.211C172.319 184.349 163.773 186.609 159.887 193.26C136.355 233.526 139.866 282.014 164.773 317.861C169.159 324.174 177.852 325.731 184.189 321.338ZM204.78 164.774C207.995 171.757 216.279 174.803 223.283 171.578C248.656 159.896 279.103 160.338 305.055 175.399C311.71 179.262 320.256 177.001 324.142 170.35C328.029 163.7 325.785 155.177 319.13 151.315C285.009 131.512 244.944 130.961 211.643 146.293C204.638 149.518 201.566 157.792 204.78 164.774Z"/>
<path fill-rule="evenodd" clip-rule="evenodd" d="M254.432 305.382C251.273 312.405 243.013 315.557 235.983 312.421C212.678 302.027 200.72 282.518 198.339 266.913C197.179 259.312 202.416 252.197 210.035 251.021C217.655 249.846 224.771 255.054 225.931 262.654C226.885 268.912 232.76 280.449 247.423 286.989C254.453 290.124 257.591 298.359 254.432 305.382Z"/>
<path d="M291.582 232.17C295.005 238.274 296.11 246.342 295.067 256.402C294.75 259.457 293.456 262.198 291.349 263.341C289.759 264.203 285.554 264.192 279.44 256.424C262.297 234.644 251.6 221.816 245.12 214.367L235.598 204.103C229.865 198.978 221.042 199.471 215.892 205.206C210.785 210.892 211.207 219.596 216.805 224.739C222.888 231.732 240.503 252.098 257.475 273.662C267.415 286.291 280.701 295.493 295.769 292.029C310.03 288.751 318.065 275.72 322.008 263.814L322.613 261.115C324.272 247.446 323.578 232.133 315.945 218.522C308.063 204.468 294.079 194.496 273.832 189.301C266.372 187.387 258.755 191.874 256.819 199.323C254.882 206.772 259.36 214.362 266.82 216.276C281.532 220.051 288.247 226.223 291.582 232.17Z"/>
<path fill-rule="evenodd" clip-rule="evenodd" d="M241.218 469.712C233.542 469.048 226.764 474.722 226.08 482.384C225.396 490.046 231.065 496.796 238.741 497.46C260.684 499.357 282.727 498.339 304.273 494.515C311.865 493.168 316.939 485.937 315.608 478.365C314.276 470.793 307.043 465.747 299.452 467.094C280.297 470.494 260.708 471.397 241.218 469.712ZM369.682 441.996C362.957 445.771 360.558 454.263 364.324 460.964C368.089 467.665 376.593 470.038 383.318 466.264C414.906 448.535 443.117 423.658 465.324 392.13C477.433 374.94 487.075 356.739 494.313 337.956C497.082 330.771 493.495 322.722 486.303 319.977C479.11 317.232 471.035 320.83 468.266 328.015C461.845 344.679 453.283 360.849 442.504 376.151C422.751 404.195 397.705 426.268 369.682 441.996Z"/>
<path fill-rule="evenodd" clip-rule="evenodd" d="M454.841 248.704C454.781 234.97 443.575 223.913 429.813 224.007C416.05 224.101 404.943 235.311 405.003 249.045C405.075 265.36 402.355 281.501 397.083 296.778L396.749 297.746L396.495 298.739C394.68 305.85 390.135 315.063 384.119 324.553C378.299 333.734 372.135 341.569 368.539 345.666C355.755 360.082 339.847 372.188 321.169 380.866C300.858 390.302 279.554 394.624 258.653 394.401C244.892 394.254 233.589 405.268 233.409 419.002C233.228 432.735 244.237 443.987 257.999 444.133C286.194 444.434 314.895 438.59 342.113 425.945C367.156 414.31 388.612 397.999 405.87 378.524L405.904 378.486L405.937 378.448C411.181 372.483 418.939 362.552 426.219 351.068C433.152 340.131 440.701 326.159 444.517 311.947C451.384 291.721 454.936 270.348 454.841 248.704Z"/>
<path d="M44.8284 200.285C51.0632 173.032 62.6078 146.485 79.7515 122.146C101.111 91.8227 128.661 68.4772 159.476 52.5864C167.367 48.5171 175.474 44.9359 183.748 41.8517C190.974 39.1583 194.658 31.1348 191.976 23.9308C189.295 16.7268 181.264 13.0703 174.038 15.7638C164.726 19.235 155.599 23.2668 146.712 27.8496C111.982 45.7586 80.9478 72.0715 56.9315 106.167C37.6623 133.524 24.6487 163.424 17.6197 194.149C15.9034 201.651 20.603 209.106 28.1164 210.8C35.6299 212.495 43.1121 207.787 44.8284 200.285Z"/>
<path d="M115.946 255.565C115.469 241.84 103.932 231.127 90.1781 231.637C76.4239 232.147 65.6605 243.686 66.1374 257.411C67.0113 282.558 72.8308 307.917 84.0576 332.081C93.5322 352.474 106.144 370.479 121.073 385.758C138.191 403.277 158.313 417.171 180.184 427C192.721 432.635 207.486 427.049 213.164 414.524C218.841 401.999 213.279 387.278 200.742 381.643C184.447 374.32 169.494 363.985 156.798 350.992C145.738 339.673 136.36 326.304 129.282 311.07C120.9 293.029 116.594 274.199 115.946 255.565Z"/>
<path d="M154.51 152.2C166.904 138.845 182.063 127.6 199.695 119.408C221.654 109.205 244.782 104.979 267.311 106.017C319.378 108.416 368.204 138.885 391.582 189.204C397.366 201.652 412.178 207.04 424.667 201.238C437.155 195.435 442.59 180.641 436.807 168.192C421.768 135.823 398.904 109.583 371.506 90.6546C298.623 38.2152 224.182 53.2213 178.751 74.3288C155.137 85.2999 134.708 100.43 117.982 118.455C102.353 135.296 89.9851 154.631 81.2442 175.421C75.9149 188.096 81.8809 202.658 94.5697 207.945C107.258 213.232 121.865 207.243 127.194 194.567C133.708 179.075 142.912 164.697 154.51 152.2Z"/>
</mask>
<path fill-rule="evenodd" clip-rule="evenodd" d="M211.323 342.376C208.588 349.573 212.212 357.606 219.418 360.317C258.116 374.88 301.231 367.57 332.815 342.622C343.91 333.858 353.57 322.927 361.102 310.037C379.141 279.171 381.288 243.438 370.083 212.318C367.479 205.086 359.488 201.344 352.234 203.96C344.98 206.577 341.211 214.561 343.815 221.793C352.354 245.51 350.696 272.619 337.002 296.05C331.259 305.878 323.926 314.165 315.526 320.8C291.519 339.763 258.704 345.311 229.321 334.254C222.116 331.542 214.058 335.179 211.323 342.376ZM184.189 321.338C190.526 316.945 192.107 308.266 187.721 301.953C168.738 274.632 166.139 237.787 183.987 207.247C187.874 200.596 185.63 192.073 178.974 188.211C172.319 184.349 163.773 186.609 159.887 193.26C136.355 233.526 139.866 282.014 164.773 317.861C169.159 324.174 177.852 325.731 184.189 321.338ZM204.78 164.774C207.995 171.757 216.279 174.803 223.283 171.578C248.656 159.896 279.103 160.338 305.055 175.399C311.71 179.262 320.256 177.001 324.142 170.35C328.029 163.7 325.785 155.177 319.13 151.315C285.009 131.512 244.944 130.961 211.643 146.293C204.638 149.518 201.566 157.792 204.78 164.774Z" fill="#448FFF"/>
<path fill-rule="evenodd" clip-rule="evenodd" d="M254.432 305.382C251.273 312.405 243.013 315.557 235.983 312.421C212.678 302.027 200.72 282.518 198.339 266.913C197.179 259.312 202.416 252.197 210.035 251.021C217.655 249.846 224.771 255.054 225.931 262.654C226.885 268.912 232.76 280.449 247.423 286.989C254.453 290.124 257.591 298.359 254.432 305.382Z" fill="#448FFF"/>
<path d="M291.582 232.17C295.005 238.274 296.11 246.342 295.067 256.402C294.75 259.457 293.456 262.198 291.349 263.341C289.759 264.203 285.554 264.192 279.44 256.424C262.297 234.644 251.6 221.816 245.12 214.367L235.598 204.103C229.865 198.978 221.042 199.471 215.892 205.206C210.785 210.892 211.207 219.596 216.805 224.739C222.888 231.732 240.503 252.098 257.475 273.662C267.415 286.291 280.701 295.493 295.769 292.029C310.03 288.751 318.065 275.72 322.008 263.814L322.613 261.115C324.272 247.446 323.578 232.133 315.945 218.522C308.063 204.468 294.079 194.496 273.832 189.301C266.372 187.387 258.755 191.874 256.819 199.323C254.882 206.772 259.36 214.362 266.82 216.276C281.532 220.051 288.247 226.223 291.582 232.17Z" fill="#448FFF"/>
<path fill-rule="evenodd" clip-rule="evenodd" d="M241.218 469.712C233.542 469.048 226.764 474.722 226.08 482.384C225.396 490.046 231.065 496.796 238.741 497.46C260.684 499.357 282.727 498.339 304.273 494.515C311.865 493.168 316.939 485.937 315.608 478.365C314.276 470.793 307.043 465.747 299.452 467.094C280.297 470.494 260.708 471.397 241.218 469.712ZM369.682 441.996C362.957 445.771 360.558 454.263 364.324 460.964C368.089 467.665 376.593 470.038 383.318 466.264C414.906 448.535 443.117 423.658 465.324 392.13C477.433 374.94 487.075 356.739 494.313 337.956C497.082 330.771 493.495 322.722 486.303 319.977C479.11 317.232 471.035 320.83 468.266 328.015C461.845 344.679 453.283 360.849 442.504 376.151C422.751 404.195 397.705 426.268 369.682 441.996Z" fill="#448FFF"/>
<path fill-rule="evenodd" clip-rule="evenodd" d="M454.841 248.704C454.781 234.97 443.575 223.913 429.813 224.007C416.05 224.101 404.943 235.311 405.003 249.045C405.075 265.36 402.355 281.501 397.083 296.778L396.749 297.746L396.495 298.739C394.68 305.85 390.135 315.063 384.119 324.553C378.299 333.734 372.135 341.569 368.539 345.666C355.755 360.082 339.847 372.188 321.169 380.866C300.858 390.302 279.554 394.624 258.653 394.401C244.892 394.254 233.589 405.268 233.409 419.002C233.228 432.735 244.237 443.987 257.999 444.133C286.194 444.434 314.895 438.59 342.113 425.945C367.156 414.31 388.612 397.999 405.87 378.524L405.904 378.486L405.937 378.448C411.181 372.483 418.939 362.552 426.219 351.068C433.152 340.131 440.701 326.159 444.517 311.947C451.384 291.721 454.936 270.348 454.841 248.704Z" fill="white"/>
<path d="M44.8284 200.285C51.0632 173.032 62.6078 146.485 79.7515 122.146C101.111 91.8227 128.661 68.4772 159.476 52.5864C167.367 48.5171 175.474 44.9359 183.748 41.8517C190.974 39.1583 194.658 31.1348 191.976 23.9308C189.295 16.7268 181.264 13.0703 174.038 15.7638C164.726 19.235 155.599 23.2668 146.712 27.8496C111.982 45.7586 80.9478 72.0715 56.9315 106.167C37.6623 133.524 24.6487 163.424 17.6197 194.149C15.9034 201.651 20.603 209.106 28.1164 210.8C35.6299 212.495 43.1121 207.787 44.8284 200.285Z" fill="#448FFF"/>
<path d="M115.946 255.565C115.469 241.84 103.932 231.127 90.1781 231.637C76.4239 232.147 65.6605 243.686 66.1374 257.411C67.0113 282.558 72.8308 307.917 84.0576 332.081C93.5322 352.474 106.144 370.479 121.073 385.758C138.191 403.277 158.313 417.171 180.184 427C192.721 432.635 207.486 427.049 213.164 414.524C218.841 401.999 213.279 387.278 200.742 381.643C184.447 374.32 169.494 363.985 156.798 350.992C145.738 339.673 136.36 326.304 129.282 311.07C120.9 293.029 116.594 274.199 115.946 255.565Z" fill="white"/>
<path d="M154.51 152.2C166.904 138.845 182.063 127.6 199.695 119.408C221.654 109.205 244.782 104.979 267.311 106.017C319.378 108.416 368.204 138.885 391.582 189.204C397.366 201.652 412.178 207.04 424.667 201.238C437.155 195.435 442.59 180.641 436.807 168.192C421.768 135.823 398.904 109.583 371.506 90.6546C298.623 38.2152 224.182 53.2213 178.751 74.3288C155.137 85.2999 134.708 100.43 117.982 118.455C102.353 135.296 89.9851 154.631 81.2442 175.421C75.9149 188.096 81.8809 202.658 94.5697 207.945C107.258 213.232 121.865 207.243 127.194 194.567C133.708 179.075 142.912 164.697 154.51 152.2Z" fill="white"/>
<path d="M216.805 224.739L211.902 229.735L211.928 229.761L211.954 229.786L216.805 224.739ZM240.283 198.902C237.406 196.319 232.98 196.558 230.398 199.435C227.816 202.313 228.055 206.738 230.932 209.321L240.283 198.902ZM235.635 204.136L240.324 198.939L240.318 198.933L240.311 198.927L235.635 204.136ZM230.985 209.368C233.855 211.958 238.281 211.731 240.871 208.86C243.461 205.99 243.234 201.564 240.363 198.974L230.985 209.368ZM211.954 229.786C211.957 229.789 211.962 229.793 211.966 229.798C211.971 229.802 211.978 229.809 211.987 229.818C211.992 229.822 211.999 229.829 212.007 229.836C212.014 229.843 212.026 229.854 212.041 229.868C212.048 229.875 212.059 229.885 212.071 229.896C212.083 229.907 212.1 229.923 212.122 229.942C212.133 229.952 212.147 229.965 212.163 229.979C212.179 229.993 212.2 230.012 212.226 230.034C212.237 230.044 212.26 230.063 212.272 230.074C212.286 230.086 212.317 230.112 212.334 230.126C212.354 230.143 212.399 230.179 212.423 230.199C212.454 230.223 212.523 230.277 212.562 230.307C212.613 230.346 212.734 230.434 212.804 230.484C212.906 230.554 213.17 230.722 213.333 230.819C213.62 230.974 214.539 231.364 215.184 231.551C216.959 231.74 221.726 229.723 223.515 226.744C223.806 224.893 223.391 222.362 223.121 221.718C222.968 221.418 222.699 220.961 222.592 220.799C222.52 220.696 222.394 220.524 222.341 220.454C222.301 220.403 222.229 220.314 222.198 220.276C222.173 220.246 222.127 220.192 222.106 220.167C222.089 220.148 222.057 220.111 222.042 220.095C222.008 220.056 221.979 220.024 221.96 220.003C221.939 219.981 221.922 219.962 221.908 219.948C221.895 219.933 221.883 219.921 221.873 219.911C221.855 219.891 221.839 219.875 221.829 219.865C221.818 219.853 221.809 219.844 221.802 219.837C221.788 219.823 221.777 219.812 221.77 219.805C221.756 219.791 221.746 219.78 221.74 219.775C221.734 219.769 221.729 219.764 221.726 219.761C221.719 219.754 221.713 219.748 221.71 219.745C221.706 219.741 221.702 219.738 221.699 219.735C221.694 219.729 221.688 219.724 221.683 219.719C221.68 219.715 221.671 219.707 221.661 219.697C221.658 219.694 221.653 219.69 221.648 219.684C221.645 219.682 221.641 219.678 221.636 219.673C221.631 219.669 221.624 219.662 221.615 219.653C221.611 219.649 221.605 219.643 221.597 219.636C221.591 219.63 221.58 219.62 221.568 219.609C221.561 219.603 221.553 219.595 221.544 219.586C221.535 219.578 221.523 219.567 221.508 219.554C221.494 219.541 221.474 219.522 221.448 219.5C221.437 219.49 221.413 219.469 221.4 219.457C221.384 219.443 221.348 219.412 221.328 219.395C221.302 219.373 221.242 219.322 221.207 219.294C221.158 219.255 221.036 219.159 220.962 219.104C220.841 219.016 220.477 218.774 220.23 218.628C219.574 218.302 215.703 217.809 212.744 219.012C210.235 222.268 210.272 227.277 210.677 228.136C210.848 228.426 211.131 228.844 211.232 228.98C211.294 229.06 211.4 229.191 211.443 229.242C211.474 229.279 211.529 229.342 211.553 229.369C211.571 229.39 211.605 229.427 211.619 229.443C211.632 229.457 211.654 229.481 211.665 229.492C211.688 229.518 211.708 229.539 211.721 229.553C211.735 229.567 211.747 229.579 211.756 229.588C211.765 229.598 211.773 229.606 211.779 229.612C211.791 229.625 211.801 229.635 211.808 229.642C211.815 229.649 211.821 229.655 211.825 229.659C211.834 229.668 211.841 229.675 211.846 229.68C211.854 229.688 211.861 229.695 211.865 229.699C211.872 229.706 211.878 229.712 211.881 229.715C211.888 229.722 211.896 229.729 211.902 229.735L221.707 219.743C221.704 219.739 221.704 219.739 221.706 219.741C221.707 219.742 221.711 219.746 221.717 219.752C221.72 219.755 221.726 219.762 221.735 219.77C221.739 219.774 221.746 219.781 221.755 219.79C221.759 219.794 221.765 219.8 221.772 219.807C221.779 219.814 221.789 219.824 221.801 219.837C221.807 219.843 221.815 219.851 221.824 219.86C221.833 219.869 221.844 219.882 221.858 219.896C221.871 219.91 221.891 219.931 221.915 219.957C221.925 219.968 221.948 219.992 221.96 220.005C221.975 220.022 222.008 220.059 222.027 220.08C222.051 220.107 222.106 220.17 222.136 220.206C222.18 220.258 222.286 220.389 222.347 220.469C222.449 220.604 222.731 221.023 222.902 221.313C223.308 222.172 223.344 227.181 220.836 230.437C217.877 231.639 214.005 231.147 213.349 230.821C213.103 230.675 212.739 230.433 212.617 230.345C212.543 230.289 212.421 230.194 212.373 230.155C212.338 230.126 212.277 230.076 212.252 230.054C212.231 230.037 212.195 230.005 212.179 229.992C212.166 229.98 212.142 229.959 212.131 229.949C212.106 229.927 212.085 229.908 212.071 229.895C212.057 229.882 212.045 229.871 212.036 229.862C212.026 229.854 212.018 229.846 212.012 229.84C211.999 229.829 211.989 229.819 211.982 229.813C211.975 229.806 211.969 229.8 211.965 229.796C211.956 229.787 211.949 229.781 211.944 229.776C211.94 229.772 211.936 229.768 211.933 229.766C211.928 229.761 211.924 229.756 211.921 229.754C211.914 229.747 211.908 229.741 211.908 229.741C211.906 229.74 211.905 229.738 211.903 229.736C211.902 229.735 211.9 229.734 211.898 229.731C211.896 229.73 211.892 229.725 211.886 229.72C211.883 229.717 211.879 229.712 211.873 229.707C211.868 229.702 211.858 229.692 211.845 229.678C211.838 229.671 211.827 229.66 211.813 229.647C211.806 229.64 211.797 229.63 211.786 229.619C211.776 229.608 211.76 229.592 211.742 229.573C211.732 229.563 211.721 229.55 211.707 229.536C211.694 229.522 211.676 229.503 211.656 229.481C211.636 229.459 211.607 229.428 211.573 229.389C211.558 229.373 211.526 229.336 211.509 229.316C211.488 229.292 211.443 229.238 211.417 229.208C211.386 229.17 211.314 229.081 211.275 229.03C211.221 228.96 211.095 228.788 211.024 228.685C210.917 228.523 210.647 228.066 210.495 227.766C210.225 227.122 209.809 224.591 210.1 222.74C211.89 219.761 216.656 217.744 218.431 217.933C219.076 218.12 219.995 218.51 220.283 218.665C220.446 218.762 220.709 218.93 220.811 219C220.882 219.05 221.003 219.138 221.054 219.177C221.093 219.207 221.162 219.261 221.192 219.285C221.216 219.305 221.261 219.341 221.281 219.358C221.298 219.372 221.329 219.398 221.343 219.41C221.356 219.421 221.379 219.44 221.389 219.45C221.415 219.472 221.436 219.491 221.452 219.505C221.468 219.519 221.482 219.532 221.494 219.542C221.515 219.561 221.533 219.577 221.544 219.588C221.556 219.599 221.567 219.608 221.574 219.615C221.589 219.629 221.601 219.64 221.608 219.647C221.616 219.654 221.622 219.66 221.626 219.664C221.635 219.673 221.642 219.679 221.645 219.683C221.65 219.687 221.653 219.69 221.655 219.692L211.954 229.786ZM240.363 198.974L240.324 198.939L230.946 209.333L230.985 209.368L240.363 198.974ZM240.311 198.927L240.283 198.902L230.932 209.321L230.959 209.345L240.311 198.927ZM154.51 152.2L144.248 142.677L144.248 142.677L154.51 152.2ZM127.194 194.567L114.289 189.141L114.289 189.141L127.194 194.567ZM94.5697 207.945L99.9544 195.022L99.9544 195.022L94.5697 207.945ZM81.2442 175.421L94.1499 180.847L94.1499 180.847L81.2442 175.421ZM117.982 118.455L128.244 127.978L128.244 127.978L117.982 118.455ZM267.311 106.017L267.955 92.0319L267.955 92.0319L267.311 106.017ZM115.946 255.565L101.954 256.051L101.954 256.051L115.946 255.565ZM90.1781 231.637L89.6597 217.647L89.6597 217.647L90.1781 231.637ZM156.798 350.992L166.812 341.208L166.812 341.208L156.798 350.992ZM200.742 381.643L206.481 368.874L206.481 368.874L200.742 381.643ZM213.164 414.524L200.412 408.744L200.412 408.744L213.164 414.524ZM180.184 427L174.445 439.77L174.445 439.77L180.184 427ZM121.073 385.758L131.087 375.974L131.087 375.974L121.073 385.758ZM66.1374 257.411L80.129 256.924L80.129 256.924L66.1374 257.411ZM454.841 248.704L440.841 248.766L440.841 248.766L454.841 248.704ZM444.517 311.947L431.26 307.446L431.114 307.877L430.996 308.317L444.517 311.947ZM426.219 351.068L438.043 358.564L438.043 358.564L426.219 351.068ZM405.937 378.448L416.452 387.692L416.453 387.691L405.937 378.448ZM405.904 378.486L416.379 387.775L416.399 387.752L416.418 387.73L405.904 378.486ZM405.87 378.524L395.395 369.236L395.392 369.239L405.87 378.524ZM257.999 444.133L258.148 430.134L258.148 430.134L257.999 444.133ZM233.409 419.002L219.41 418.817L219.41 418.817L233.409 419.002ZM258.653 394.401L258.504 408.4L258.504 408.4L258.653 394.401ZM368.539 345.666L379.013 354.955L379.037 354.928L379.06 354.902L368.539 345.666ZM384.119 324.553L395.944 332.048L395.944 332.048L384.119 324.553ZM396.495 298.739L382.931 295.275L382.931 295.276L396.495 298.739ZM396.749 297.746L383.514 293.181L383.327 293.725L383.184 294.282L396.749 297.746ZM397.083 296.778L383.849 292.211L383.849 292.212L397.083 296.778ZM405.003 249.045L419.003 248.983L419.003 248.983L405.003 249.045ZM219.418 360.317L224.348 347.214L224.348 347.214L219.418 360.317ZM211.323 342.376L224.41 347.349L224.41 347.349L211.323 342.376ZM332.815 342.622L324.137 331.636L324.137 331.636L332.815 342.622ZM361.102 310.037L373.19 317.101L361.102 310.037ZM370.083 212.318L356.911 217.061L356.911 217.061L370.083 212.318ZM352.234 203.96L347.484 190.791L347.484 190.791L352.234 203.96ZM343.815 221.793L330.643 226.535L330.643 226.536L343.815 221.793ZM337.002 296.05L324.915 288.987L324.915 288.987L337.002 296.05ZM315.526 320.8L306.848 309.814L306.848 309.814L315.526 320.8ZM229.321 334.254L224.391 347.357L224.391 347.357L229.321 334.254ZM187.721 301.953L199.218 293.965L199.218 293.965L187.721 301.953ZM184.189 321.338L192.165 332.844L184.189 321.338ZM183.987 207.247L196.074 214.311L183.987 207.247ZM159.887 193.26L147.799 186.196L159.887 193.26ZM164.773 317.861L153.276 325.85L153.276 325.85L164.773 317.861ZM223.283 171.578L229.138 184.295L229.138 184.295L223.283 171.578ZM204.78 164.774L217.497 158.92L217.497 158.92L204.78 164.774ZM305.055 175.399L298.027 187.508L305.055 175.399ZM319.13 151.315L326.157 139.206L326.157 139.206L319.13 151.315ZM211.643 146.293L217.498 159.01L217.498 159.01L211.643 146.293ZM291.582 232.17L303.793 225.322L303.793 225.322L291.582 232.17ZM295.067 256.402L308.992 257.846L295.067 256.402ZM266.82 216.276L263.34 229.837L263.341 229.837L266.82 216.276ZM256.819 199.323L243.269 195.801L243.269 195.801L256.819 199.323ZM273.832 189.301L270.353 202.861L270.353 202.861L273.832 189.301ZM315.945 218.522L328.155 211.674L328.155 211.674L315.945 218.522ZM322.613 261.115L336.274 264.175L336.426 263.494L336.51 262.802L322.613 261.115ZM322.008 263.814L335.298 268.216L335.517 267.554L335.669 266.874L322.008 263.814ZM295.769 292.029L292.632 278.385L292.632 278.385L295.769 292.029ZM257.475 273.662L268.476 265.003L268.476 265.003L257.475 273.662ZM207.333 235.048C213.026 240.279 221.883 239.905 227.114 234.211C232.345 228.517 231.97 219.661 226.277 214.43L207.333 235.048ZM215.892 205.206L205.476 195.851L205.476 195.851L215.892 205.206ZM235.598 204.103L245.862 194.582L245.417 194.102L244.929 193.665L235.598 204.103ZM245.12 214.367L255.683 205.178L255.536 205.009L255.384 204.845L245.12 214.367ZM279.44 256.424L290.441 247.766L290.441 247.766L279.44 256.424ZM291.349 263.341L298.023 275.648L298.023 275.648L291.349 263.341ZM44.8284 200.285L31.181 197.162L31.181 197.162L44.8284 200.285ZM79.7515 122.146L91.1972 130.208L79.7515 122.146ZM28.1164 210.8L25.0368 224.458L25.0368 224.458L28.1164 210.8ZM17.6197 194.149L3.97227 191.027L3.97227 191.027L17.6197 194.149ZM56.9315 106.167L68.3772 114.229L68.3772 114.229L56.9315 106.167ZM146.712 27.8496L140.295 15.4066L140.295 15.4066L146.712 27.8496ZM174.038 15.7638L178.928 28.882L178.928 28.882L174.038 15.7638ZM191.976 23.9308L178.856 28.8143L178.856 28.8143L191.976 23.9308ZM183.748 41.8517L178.858 28.7335L178.858 28.7335L183.748 41.8517ZM159.476 52.5864L165.893 65.0294L165.893 65.0294L159.476 52.5864ZM241.218 469.712L240.012 483.66L240.012 483.66L241.218 469.712ZM299.452 467.094L297.006 453.31L297.005 453.31L299.452 467.094ZM315.608 478.365L329.396 475.941L329.396 475.941L315.608 478.365ZM304.273 494.515L306.72 508.3L306.72 508.3L304.273 494.515ZM238.741 497.46L239.947 483.512L239.947 483.512L238.741 497.46ZM369.682 441.996L362.829 429.788L362.829 429.788L369.682 441.996ZM364.324 460.964L376.529 454.106L376.529 454.106L364.324 460.964ZM442.504 376.151L431.059 368.089L442.504 376.151ZM468.266 328.015L481.33 333.049L481.33 333.049L468.266 328.015ZM486.303 319.977L491.294 306.897L491.294 306.897L486.303 319.977ZM494.313 337.956L507.377 342.99L507.377 342.99L494.313 337.956ZM465.324 392.13L453.879 384.068L453.879 384.068L465.324 392.13ZM383.318 466.264L376.466 454.055L376.466 454.055L383.318 466.264ZM235.983 312.421L230.281 325.207L230.281 325.207L235.983 312.421ZM254.432 305.382L267.199 311.125L267.199 311.125L254.432 305.382ZM198.339 266.913L184.499 269.024L184.499 269.024L198.339 266.913ZM210.035 251.021L212.171 264.858L212.171 264.858L210.035 251.021ZM225.931 262.654L239.771 260.543L225.931 262.654ZM247.423 286.989L241.721 299.775L241.721 299.775L247.423 286.989ZM371.506 90.6546L363.33 102.019L363.438 102.097L363.548 102.173L371.506 90.6546ZM164.772 161.723C175.951 149.676 189.636 139.518 205.594 132.104L193.796 106.711C174.491 115.681 157.856 128.013 144.248 142.677L164.772 161.723ZM140.1 199.993C145.988 185.99 154.304 173.004 164.772 161.723L144.248 142.677C131.521 156.391 121.428 172.16 114.289 189.141L140.1 199.993ZM89.1849 220.868C108.998 229.124 131.782 219.777 140.1 199.993L114.289 189.141C111.948 194.709 105.519 197.341 99.9544 195.022L89.1849 220.868ZM68.3385 169.995C60.0071 189.81 69.3391 212.599 89.1849 220.868L99.9544 195.022C94.4226 192.717 91.8226 186.382 94.1499 180.847L68.3385 169.995ZM107.72 108.931C90.9616 126.99 77.7053 147.716 68.3385 169.995L94.1499 180.847C102.265 161.546 113.745 143.602 128.244 127.978L107.72 108.931ZM172.852 61.6323C147.564 73.3811 125.66 89.5988 107.72 108.931L128.244 127.978C143.756 111.262 162.71 97.2188 184.65 87.0254L172.852 61.6323ZM430.565 213.934C450.027 204.892 458.563 181.792 449.503 162.293L424.11 174.091C426.618 179.489 424.282 185.979 418.768 188.541L430.565 213.934ZM378.886 195.103C387.945 214.601 411.103 222.976 430.565 213.934L418.768 188.541C413.253 191.103 406.787 188.702 404.279 183.305L378.886 195.103ZM266.667 120.002C313.743 122.171 357.796 149.709 378.886 195.103L404.279 183.305C378.612 128.061 325.014 94.6606 267.955 92.0319L266.667 120.002ZM205.594 132.104C225.461 122.874 246.339 119.066 266.667 120.002L267.955 92.0319C243.225 90.8926 217.848 95.5368 193.796 106.711L205.594 132.104ZM129.938 255.079C129.191 233.584 111.123 216.851 89.6597 217.647L90.6966 245.628C96.7413 245.404 101.747 250.096 101.954 256.051L129.938 255.079ZM141.978 305.171C134.401 288.861 130.521 271.875 129.938 255.079L101.954 256.051C102.666 276.523 107.4 297.197 116.585 316.969L141.978 305.171ZM166.812 341.208C156.844 331.006 148.379 318.947 141.978 305.171L116.585 316.969C124.34 333.66 134.632 348.339 146.784 360.776L166.812 341.208ZM206.481 368.874C191.755 362.255 178.259 352.924 166.812 341.208L146.784 360.776C160.728 375.047 177.139 386.384 195.003 394.413L206.481 368.874ZM225.915 420.304C234.789 400.726 226.093 377.688 206.481 368.874L195.003 394.413C200.466 396.868 202.893 403.272 200.412 408.744L225.915 420.304ZM174.445 439.77C194.024 448.569 217.055 439.85 225.915 420.304L200.412 408.744C197.917 414.248 191.418 416.7 185.923 414.231L174.445 439.77ZM111.059 395.542C129.425 414.339 151.005 429.235 174.445 439.77L185.923 414.231C165.621 405.106 146.956 392.216 131.087 375.974L111.059 395.542ZM71.361 337.98C81.5129 359.831 95.0383 379.145 111.059 395.542L131.087 375.974C117.25 361.813 105.551 345.117 96.7542 326.182L71.361 337.98ZM52.1458 257.897C53.0836 284.883 59.3302 312.085 71.361 337.98L96.7542 326.182C86.3315 303.749 80.939 280.234 80.129 256.924L52.1458 257.897ZM89.6597 217.647C68.2208 218.441 51.3998 236.428 52.1458 257.897L80.129 256.924C79.9211 250.944 84.6269 245.853 90.6966 245.628L89.6597 217.647ZM468.841 248.642C468.746 227.136 451.197 209.861 429.717 210.008L429.909 238.007C435.954 237.966 440.815 242.805 440.841 248.766L468.841 248.642ZM457.774 316.448C465.132 294.772 468.943 271.859 468.841 248.642L440.841 248.766C440.93 268.838 437.635 288.669 431.26 307.446L457.774 316.448ZM438.043 358.564C445.285 347.14 453.687 331.782 458.038 315.577L430.996 308.317C427.715 320.536 421.02 333.121 414.395 343.572L438.043 358.564ZM416.453 387.691C422.159 381.198 430.359 370.686 438.043 358.564L414.395 343.572C407.519 354.418 400.202 363.767 395.422 369.206L416.453 387.691ZM416.418 387.73L416.452 387.692L395.423 369.204L395.39 369.242L416.418 387.73ZM416.345 387.813L416.379 387.775L395.429 369.198L395.395 369.236L416.345 387.813ZM348.012 438.641C374.831 426.181 397.838 408.697 416.348 387.809L395.392 369.239C379.387 387.301 359.48 402.438 336.214 413.248L348.012 438.641ZM257.849 458.132C288.089 458.455 318.861 452.185 348.012 438.641L336.214 413.248C310.928 424.996 284.298 430.413 258.148 430.134L257.849 458.132ZM219.41 418.817C219.127 440.322 236.37 457.904 257.849 458.132L258.148 430.134C252.105 430.07 247.329 425.147 247.407 419.186L219.41 418.817ZM258.802 380.402C237.349 380.173 219.693 397.34 219.41 418.817L247.407 419.186C247.486 413.197 252.434 408.335 258.504 408.4L258.802 380.402ZM315.27 368.169C296.892 376.708 277.658 380.603 258.802 380.402L258.504 408.4C281.45 408.644 304.825 403.897 327.068 393.562L315.27 368.169ZM358.064 336.377C346.532 349.381 332.174 360.316 315.27 368.169L327.068 393.562C347.521 384.06 364.978 370.782 379.013 354.955L358.064 336.377ZM372.295 317.057C366.879 325.601 361.154 332.857 358.017 336.43L379.06 354.902C383.116 350.282 389.72 341.867 395.944 332.048L372.295 317.057ZM382.931 295.276C381.652 300.285 378.01 308.041 372.295 317.057L395.944 332.048C402.26 322.085 407.708 311.415 410.06 302.202L382.931 295.276ZM383.184 294.282L382.931 295.275L410.06 302.203L410.314 301.21L383.184 294.282ZM383.849 292.212L383.514 293.181L409.984 302.312L410.318 301.343L383.849 292.212ZM391.003 249.106C391.068 263.825 388.614 278.403 383.849 292.211L410.317 301.344C416.096 284.599 419.082 266.894 419.003 248.983L391.003 249.106ZM429.717 210.008C408.264 210.154 390.909 227.626 391.003 249.106L419.003 248.983C418.977 242.996 423.837 238.048 429.909 238.007L429.717 210.008ZM224.348 347.214C224.335 347.209 224.337 347.209 224.348 347.216C224.358 347.222 224.369 347.23 224.379 347.24C224.398 347.257 224.403 347.269 224.404 347.271C224.405 347.273 224.41 347.284 224.411 347.31C224.411 347.323 224.41 347.337 224.409 347.349C224.406 347.361 224.405 347.362 224.41 347.349L198.236 337.403C192.749 351.843 200.028 367.979 214.487 373.42L224.348 347.214ZM324.137 331.636C296.336 353.596 258.371 360.017 224.348 347.214L214.487 373.42C257.86 389.742 306.127 381.544 341.493 353.608L324.137 331.636ZM349.015 302.974C342.379 314.328 333.884 323.936 324.137 331.636L341.493 353.608C353.935 343.78 364.76 331.525 373.19 317.101L349.015 302.974ZM356.911 217.061C366.77 244.444 364.874 275.836 349.015 302.974L373.19 317.101C393.408 282.505 395.805 242.432 383.255 207.576L356.911 217.061ZM356.984 217.13C357.002 217.124 357.006 217.124 356.999 217.125C356.992 217.126 356.984 217.126 356.976 217.126C356.963 217.125 356.961 217.123 356.965 217.125C356.97 217.127 356.961 217.124 356.943 217.105C356.934 217.095 356.924 217.083 356.917 217.07C356.909 217.057 356.908 217.052 356.911 217.061L383.255 207.576C378.017 193.026 361.975 185.564 347.484 190.791L356.984 217.13ZM356.987 217.05C356.984 217.041 356.986 217.046 356.988 217.06C356.99 217.074 356.991 217.089 356.99 217.101C356.989 217.125 356.984 217.13 356.988 217.123C356.991 217.115 356.993 217.116 356.985 217.124C356.98 217.128 356.974 217.133 356.969 217.136C356.963 217.139 356.967 217.136 356.984 217.13L347.484 190.791C332.999 196.015 325.406 211.992 330.643 226.535L356.987 217.05ZM349.089 303.114C364.96 275.956 366.873 244.508 356.987 217.05L330.643 226.536C337.835 246.512 336.431 269.281 324.915 288.987L349.089 303.114ZM324.204 331.786C333.951 324.087 342.449 314.477 349.089 303.114L324.915 288.987C320.068 297.279 313.9 304.243 306.848 309.814L324.204 331.786ZM224.391 347.357C258.447 360.172 296.413 353.739 324.204 331.786L306.848 309.814C286.625 325.788 258.962 330.449 234.252 321.151L224.391 347.357ZM224.41 347.349C224.411 347.345 224.413 347.342 224.413 347.34C224.414 347.339 224.414 347.338 224.414 347.338C224.414 347.338 224.414 347.338 224.414 347.339C224.413 347.34 224.412 347.342 224.411 347.343C224.409 347.346 224.407 347.35 224.404 347.353C224.401 347.357 224.399 347.36 224.397 347.362C224.392 347.367 224.39 347.368 224.392 347.367C224.394 347.365 224.398 347.363 224.404 347.36C224.41 347.357 224.415 347.356 224.417 347.355C224.419 347.355 224.417 347.355 224.41 347.356C224.407 347.356 224.403 347.356 224.399 347.356C224.394 347.355 224.39 347.355 224.386 347.354C224.384 347.354 224.383 347.354 224.382 347.353C224.38 347.353 224.38 347.353 224.38 347.353C224.38 347.353 224.381 347.353 224.382 347.354C224.384 347.354 224.387 347.355 224.391 347.357L234.252 321.151C219.826 315.722 203.711 322.995 198.236 337.403L224.41 347.349ZM176.224 309.942C176.23 309.95 176.226 309.946 176.22 309.932C176.214 309.918 176.209 309.903 176.206 309.889C176.201 309.863 176.204 309.852 176.203 309.856C176.203 309.86 176.202 309.855 176.21 309.843C176.215 309.836 176.22 309.829 176.225 309.824C176.23 309.818 176.229 309.821 176.213 309.832L192.165 332.844C204.829 324.065 208.043 306.665 199.218 293.965L176.224 309.942ZM171.9 200.183C151.203 235.598 154.245 278.309 176.224 309.942L199.218 293.965C183.231 270.955 181.075 239.977 196.074 214.311L171.9 200.183ZM171.947 200.319C171.958 200.326 171.955 200.325 171.944 200.316C171.934 200.307 171.924 200.296 171.916 200.284C171.899 200.263 171.896 200.25 171.895 200.248C171.895 200.247 171.892 200.236 171.895 200.213C171.897 200.201 171.9 200.189 171.903 200.179C171.907 200.169 171.908 200.169 171.9 200.183L196.074 214.311C203.863 200.983 199.371 183.862 186.002 176.102L171.947 200.319ZM171.974 200.324C171.978 200.316 171.981 200.313 171.981 200.312C171.982 200.312 171.981 200.313 171.979 200.315C171.974 200.32 171.968 200.326 171.963 200.329C171.959 200.333 171.957 200.333 171.959 200.332C171.962 200.331 171.966 200.329 171.972 200.327C171.979 200.326 171.983 200.325 171.985 200.325C171.986 200.325 171.982 200.326 171.975 200.325C171.966 200.323 171.956 200.321 171.947 200.318C171.943 200.317 171.94 200.315 171.939 200.315C171.938 200.315 171.941 200.316 171.947 200.319L186.002 176.102C172.661 168.36 155.572 172.897 147.799 186.196L171.974 200.324ZM176.27 309.873C154.354 278.331 151.295 235.709 171.974 200.324L147.799 186.196C121.415 231.343 125.377 285.698 153.276 325.85L176.27 309.873ZM176.213 309.832C176.198 309.843 176.194 309.844 176.2 309.841C176.205 309.839 176.212 309.837 176.218 309.835C176.228 309.833 176.227 309.835 176.217 309.833C176.208 309.832 176.213 309.83 176.232 309.842C176.242 309.849 176.253 309.857 176.263 309.867C176.274 309.877 176.276 309.881 176.27 309.873L153.276 325.85C162.094 338.54 179.512 341.615 192.165 332.844L176.213 309.832ZM217.429 158.861C217.412 158.869 217.407 158.869 217.414 158.867C217.42 158.866 217.428 158.865 217.435 158.865C217.447 158.864 217.448 158.866 217.442 158.864C217.435 158.862 217.444 158.863 217.462 158.88C217.472 158.889 217.482 158.9 217.491 158.911C217.5 158.924 217.501 158.929 217.497 158.92L192.063 170.629C198.529 184.673 215.149 190.735 229.138 184.295L217.429 158.861ZM312.082 163.291C282.025 145.847 246.761 145.356 217.429 158.861L229.138 184.295C250.552 174.436 276.182 174.83 298.027 187.508L312.082 163.291ZM312.055 163.287C312.051 163.294 312.048 163.298 312.048 163.298C312.047 163.299 312.048 163.298 312.05 163.295C312.055 163.29 312.061 163.285 312.066 163.281C312.07 163.278 312.072 163.277 312.07 163.278C312.067 163.279 312.063 163.281 312.057 163.283C312.05 163.285 312.046 163.285 312.044 163.285C312.043 163.285 312.046 163.285 312.054 163.286C312.063 163.287 312.073 163.289 312.082 163.292C312.086 163.294 312.089 163.295 312.09 163.295C312.091 163.296 312.088 163.295 312.082 163.291L298.027 187.508C311.368 195.251 328.457 190.714 336.23 177.414L312.055 163.287ZM312.103 163.423C312.114 163.429 312.11 163.429 312.1 163.419C312.09 163.411 312.08 163.4 312.071 163.388C312.055 163.366 312.051 163.353 312.051 163.352C312.05 163.35 312.048 163.34 312.051 163.317C312.052 163.305 312.055 163.293 312.058 163.283C312.062 163.272 312.063 163.273 312.055 163.287L336.23 177.414C344.019 164.086 339.527 146.965 326.157 139.206L312.103 163.423ZM217.498 159.01C246.843 145.499 282.091 146.006 312.103 163.423L326.157 139.206C287.927 117.019 243.044 116.423 205.788 133.576L217.498 159.01ZM217.497 158.92C217.493 158.911 217.496 158.916 217.499 158.93C217.503 158.944 217.505 158.959 217.505 158.973C217.506 158.998 217.501 159.005 217.504 158.998C217.506 158.992 217.507 158.994 217.499 159.003C217.494 159.008 217.488 159.013 217.484 159.017C217.478 159.021 217.481 159.018 217.498 159.01L205.788 133.576C191.799 140.016 185.598 156.585 192.063 170.629L217.497 158.92ZM279.371 239.018C280.839 241.636 282.025 246.43 281.141 254.959L308.992 257.846C310.194 246.254 309.171 234.912 303.793 225.322L279.371 239.018ZM263.341 229.837C275.257 232.895 278.322 237.147 279.371 239.018L303.793 225.322C298.172 215.3 287.808 207.208 270.299 202.715L263.341 229.837ZM243.269 195.801C239.381 210.758 248.383 225.999 263.34 229.837L270.299 202.715C270.285 202.712 270.286 202.711 270.296 202.716C270.306 202.721 270.318 202.727 270.328 202.735C270.347 202.75 270.353 202.76 270.354 202.762C270.355 202.764 270.362 202.775 270.366 202.801C270.368 202.815 270.368 202.829 270.368 202.842C270.367 202.856 270.365 202.858 270.369 202.845L243.269 195.801ZM277.312 175.74C262.387 171.911 247.149 180.877 243.269 195.801L270.369 202.845C270.37 202.838 270.372 202.835 270.371 202.835C270.371 202.836 270.37 202.838 270.368 202.842C270.367 202.846 270.364 202.85 270.362 202.854C270.359 202.858 270.357 202.862 270.354 202.865C270.35 202.87 270.348 202.872 270.349 202.871C270.351 202.87 270.354 202.867 270.36 202.863C270.366 202.86 270.37 202.858 270.373 202.857C270.375 202.856 270.373 202.857 270.367 202.858C270.364 202.858 270.361 202.859 270.357 202.859C270.352 202.859 270.348 202.859 270.345 202.859C270.342 202.859 270.34 202.859 270.34 202.859C270.34 202.859 270.345 202.859 270.353 202.861L277.312 175.74ZM328.155 211.674C317.974 193.52 300.32 181.644 277.312 175.74L270.353 202.861C287.838 207.348 298.151 215.416 303.734 225.37L328.155 211.674ZM336.51 262.802C338.349 247.66 337.833 228.93 328.155 211.674L303.734 225.37C309.322 235.335 310.195 247.233 308.715 259.427L336.51 262.802ZM335.669 266.874L336.274 264.175L308.951 258.055L308.346 260.754L335.669 266.874ZM298.905 305.674C320.467 300.716 330.865 281.6 335.298 268.216L308.718 259.412C305.264 269.841 299.593 276.785 292.632 278.385L298.905 305.674ZM246.474 282.32C257.449 296.264 275.69 311.011 298.905 305.674L292.632 278.385C285.713 279.976 277.382 276.317 268.476 265.003L246.474 282.32ZM206.242 233.927C212.289 240.879 229.721 261.035 246.474 282.32L268.476 265.003C251.285 243.161 233.487 222.586 227.367 215.551L206.242 233.927ZM205.476 195.851C195.256 207.23 196.073 224.703 207.333 235.048L226.277 214.43C226.271 214.424 226.275 214.428 226.285 214.44C226.293 214.452 226.301 214.466 226.307 214.479C226.313 214.491 226.316 214.501 226.317 214.506C226.318 214.511 226.318 214.514 226.318 214.515C226.318 214.516 226.318 214.517 226.318 214.521C226.317 214.525 226.316 214.532 226.313 214.541C226.309 214.551 226.305 214.56 226.3 214.568C226.296 214.576 226.296 214.573 226.307 214.56L205.476 195.851ZM244.929 193.665C233.418 183.376 215.764 184.396 205.476 195.851L226.307 214.56C226.314 214.553 226.318 214.55 226.319 214.549C226.32 214.548 226.319 214.549 226.317 214.55C226.312 214.554 226.306 214.557 226.301 214.56C226.296 214.562 226.294 214.562 226.296 214.562C226.299 214.561 226.303 214.561 226.308 214.56C226.311 214.56 226.313 214.56 226.315 214.56C226.316 214.56 226.317 214.56 226.317 214.56C226.317 214.56 226.312 214.56 226.303 214.557C226.293 214.553 226.283 214.548 226.272 214.542C226.268 214.54 226.264 214.537 226.263 214.536C226.262 214.535 226.263 214.536 226.268 214.541L244.929 193.665ZM290.441 247.766C273.212 225.876 262.362 212.857 255.683 205.178L234.557 223.555C240.837 230.775 251.382 243.412 268.439 265.083L290.441 247.766ZM284.676 251.034C288.465 248.979 291.636 249.834 292.62 250.257C293.496 250.633 292.654 250.577 290.441 247.766L268.439 265.083C275.368 273.887 286.643 281.818 298.023 275.648L284.676 251.034ZM281.141 254.959C281.132 255.048 281.138 254.749 281.447 254.152C281.74 253.585 282.643 252.136 284.676 251.034L298.023 275.648C306.028 271.307 308.465 262.929 308.992 257.846L281.141 254.959ZM58.4758 203.407C64.3112 177.9 75.1181 153.036 91.1972 130.208L68.3059 114.084C50.0974 139.935 37.8151 168.164 31.181 197.162L58.4758 203.407ZM25.0368 224.458C40.0659 227.847 55.0366 218.44 58.4758 203.407L31.181 197.162C31.1793 197.17 31.1783 197.172 31.1785 197.172C31.1787 197.171 31.1797 197.169 31.1815 197.165C31.1833 197.161 31.1855 197.156 31.188 197.152C31.1905 197.148 31.1929 197.144 31.1951 197.141C31.1994 197.135 31.2017 197.133 31.2006 197.134C31.1992 197.135 31.1957 197.138 31.1902 197.142C31.1848 197.145 31.1802 197.147 31.1777 197.148C31.1755 197.149 31.1771 197.148 31.1828 197.147C31.1857 197.147 31.1893 197.146 31.1933 197.146C31.1974 197.146 31.2012 197.146 31.2045 197.146C31.2079 197.146 31.2096 197.146 31.2091 197.146C31.2086 197.146 31.2044 197.145 31.1961 197.143L25.0368 224.458ZM3.97227 191.027C0.52546 206.093 9.97455 221.061 25.0368 224.458L31.1961 197.143C31.181 197.14 31.1817 197.139 31.1924 197.144C31.2024 197.148 31.2135 197.154 31.2238 197.162C31.243 197.176 31.2492 197.185 31.2502 197.187C31.2512 197.189 31.2582 197.2 31.2629 197.226C31.2654 197.24 31.2665 197.255 31.2662 197.268C31.2658 197.282 31.2642 197.284 31.2671 197.271L3.97227 191.027ZM45.4859 98.1052C25.1519 126.973 11.4007 158.556 3.97227 191.027L31.2671 197.271C37.8968 168.292 50.1726 140.074 68.3772 114.229L45.4859 98.1052ZM140.295 15.4066C103.611 34.3239 70.8329 62.1201 45.4859 98.1052L68.3772 114.229C91.0627 82.0228 120.354 57.1934 153.128 40.2926L140.295 15.4066ZM169.148 2.64559C159.317 6.31023 149.68 10.5671 140.295 15.4066L153.128 40.2926C161.518 35.9664 170.135 32.1598 178.928 28.882L169.148 2.64559ZM205.097 19.0474C199.703 4.55517 183.582 -2.73487 169.148 2.6456L178.928 28.882C178.946 28.8754 178.95 28.8757 178.943 28.8769C178.937 28.8778 178.929 28.8784 178.921 28.878C178.907 28.8775 178.905 28.8751 178.91 28.8773C178.915 28.8795 178.906 28.8769 178.888 28.858C178.879 28.8479 178.869 28.8358 178.861 28.8234C178.853 28.8103 178.852 28.8052 178.856 28.8143L205.097 19.0474ZM188.638 54.9699C203.067 49.5914 210.489 33.5344 205.097 19.0474L178.856 28.8143C178.859 28.8234 178.857 28.8191 178.854 28.8043C178.852 28.7904 178.851 28.7759 178.852 28.763C178.853 28.7391 178.858 28.7337 178.854 28.7411C178.851 28.7485 178.849 28.7475 178.857 28.7396C178.862 28.735 178.868 28.7306 178.873 28.7275C178.879 28.724 178.876 28.7269 178.858 28.7335L188.638 54.9699ZM165.893 65.0294C173.286 61.2167 180.883 57.8607 188.638 54.9699L178.858 28.7335C170.065 32.0111 161.449 35.8174 153.06 40.1434L165.893 65.0294ZM91.1972 130.208C111.226 101.774 137.032 79.9119 165.893 65.0294L153.06 40.1434C120.289 57.0425 90.9957 81.8715 68.3059 114.084L91.1972 130.208ZM242.424 455.764C227.081 454.437 213.507 465.769 212.136 481.139L240.025 483.629C240.025 483.622 240.026 483.619 240.026 483.621C240.025 483.622 240.025 483.625 240.023 483.63C240.02 483.64 240.016 483.65 240.011 483.658C240.008 483.666 240.005 483.669 240.005 483.668C240.006 483.668 240.009 483.665 240.013 483.661C240.018 483.657 240.022 483.654 240.024 483.653C240.026 483.652 240.025 483.653 240.02 483.655C240.014 483.656 240.007 483.658 240.001 483.659C239.998 483.659 239.996 483.659 239.997 483.659C239.998 483.659 240.003 483.659 240.012 483.66L242.424 455.764ZM297.005 453.31C279.046 456.497 260.685 457.343 242.424 455.764L240.012 483.66C260.73 485.451 281.548 484.491 301.898 480.879L297.005 453.31ZM329.396 475.941C326.718 460.709 312.182 450.616 297.006 453.31L301.898 480.879C301.916 480.876 301.919 480.877 301.911 480.877C301.904 480.876 301.894 480.875 301.885 480.873C301.877 480.871 301.872 480.869 301.869 480.868C301.868 480.868 301.867 480.867 301.867 480.867C301.867 480.867 301.867 480.867 301.867 480.867C301.867 480.867 301.866 480.867 301.866 480.866C301.865 480.865 301.864 480.864 301.862 480.862C301.858 480.858 301.851 480.851 301.844 480.839C301.836 480.827 301.829 480.813 301.823 480.799C301.818 480.785 301.817 480.78 301.819 480.79L329.396 475.941ZM306.72 508.3C321.879 505.609 332.071 491.156 329.396 475.941L301.819 480.79C301.821 480.8 301.819 480.796 301.82 480.782C301.82 480.769 301.822 480.756 301.825 480.745C301.829 480.725 301.833 480.723 301.827 480.732C301.821 480.741 301.817 480.742 301.826 480.736C301.831 480.733 301.837 480.73 301.842 480.728C301.848 480.725 301.845 480.727 301.827 480.731L306.72 508.3ZM237.535 511.407C260.707 513.411 283.978 512.336 306.72 508.3L301.827 480.731C281.476 484.343 260.661 485.302 239.947 483.512L237.535 511.407ZM212.136 481.139C210.761 496.539 222.162 510.078 237.535 511.407L239.947 483.512C239.931 483.51 239.93 483.509 239.94 483.512C239.949 483.514 239.96 483.519 239.97 483.524C239.989 483.534 239.996 483.542 239.996 483.542C239.997 483.543 240.005 483.553 240.014 483.58C240.018 483.594 240.022 483.609 240.023 483.622C240.025 483.637 240.024 483.641 240.025 483.629L212.136 481.139ZM362.829 429.788C349.397 437.327 344.544 454.341 352.119 467.822L376.529 454.106C376.524 454.097 376.527 454.101 376.532 454.116C376.537 454.13 376.54 454.145 376.541 454.159C376.544 454.185 376.54 454.193 376.542 454.188C376.543 454.183 376.544 454.186 376.536 454.197C376.531 454.203 376.525 454.208 376.52 454.213C376.515 454.217 376.517 454.214 376.534 454.205L362.829 429.788ZM431.059 368.089C412.534 394.388 389.072 415.059 362.829 429.788L376.534 454.205C406.338 437.477 432.967 414.002 453.95 384.213L431.059 368.089ZM455.203 322.981C449.191 338.581 441.171 353.733 431.059 368.089L453.95 384.213C465.395 367.965 474.499 350.777 481.33 333.049L455.203 322.981ZM491.294 306.897C476.893 301.401 460.745 308.599 455.203 322.981L481.33 333.049C481.331 333.045 481.333 333.042 481.333 333.041C481.334 333.039 481.335 333.038 481.335 333.038C481.335 333.038 481.334 333.04 481.332 333.043C481.33 333.046 481.327 333.05 481.324 333.053C481.322 333.057 481.319 333.06 481.317 333.062C481.312 333.067 481.31 333.068 481.312 333.066C481.314 333.065 481.318 333.062 481.324 333.06C481.33 333.057 481.335 333.056 481.338 333.055C481.34 333.055 481.337 333.055 481.331 333.056C481.327 333.056 481.323 333.056 481.319 333.055C481.314 333.055 481.31 333.055 481.306 333.054C481.304 333.054 481.303 333.053 481.302 333.053C481.3 333.053 481.3 333.053 481.3 333.053C481.3 333.053 481.301 333.053 481.302 333.054C481.304 333.054 481.307 333.055 481.311 333.056L491.294 306.897ZM507.377 342.99C512.931 328.575 505.728 312.406 491.294 306.897L481.311 333.056C481.324 333.061 481.322 333.062 481.311 333.055C481.301 333.049 481.29 333.04 481.28 333.03C481.261 333.013 481.256 333.001 481.255 332.999C481.254 332.997 481.249 332.986 481.248 332.961C481.248 332.947 481.249 332.933 481.251 332.922C481.253 332.909 481.255 332.908 481.249 332.922L507.377 342.99ZM476.77 400.192C489.545 382.056 499.729 362.837 507.377 342.99L481.249 332.922C474.421 350.641 465.321 367.824 453.879 384.068L476.77 400.192ZM390.17 478.472C423.539 459.744 453.333 433.466 476.77 400.192L453.879 384.068C432.9 413.851 406.273 437.326 376.466 454.055L390.17 478.472ZM352.119 467.822C359.691 481.298 376.742 486.009 390.17 478.472L376.466 454.055C376.449 454.065 376.445 454.065 376.451 454.063C376.457 454.061 376.464 454.06 376.471 454.059C376.482 454.058 376.482 454.059 376.474 454.057C376.466 454.055 376.473 454.055 376.492 454.07C376.502 454.078 376.513 454.088 376.522 454.098C376.532 454.109 376.534 454.114 376.529 454.106L352.119 467.822ZM230.281 325.207C244.361 331.487 260.878 325.178 267.199 311.125L241.664 299.639C241.66 299.647 241.658 299.65 241.658 299.65C241.658 299.65 241.659 299.649 241.661 299.646C241.663 299.643 241.666 299.64 241.669 299.637C241.671 299.633 241.674 299.631 241.676 299.629C241.681 299.625 241.683 299.624 241.681 299.625C241.678 299.626 241.674 299.629 241.668 299.631C241.662 299.633 241.657 299.634 241.655 299.635C241.653 299.635 241.656 299.634 241.663 299.635C241.666 299.635 241.671 299.635 241.675 299.635C241.68 299.636 241.685 299.637 241.689 299.638C241.693 299.639 241.695 299.639 241.695 299.639C241.696 299.64 241.693 299.639 241.686 299.635L230.281 325.207ZM184.499 269.024C187.6 289.348 202.63 312.875 230.281 325.207L241.686 299.635C222.726 291.18 213.84 275.687 212.179 264.801L184.499 269.024ZM207.9 237.185C192.684 239.533 182.169 253.754 184.499 269.024L212.179 264.801C212.177 264.791 212.179 264.795 212.178 264.808C212.177 264.821 212.175 264.834 212.172 264.845C212.167 264.865 212.163 264.866 212.17 264.857C212.173 264.853 212.175 264.85 212.177 264.849C212.178 264.848 212.177 264.849 212.172 264.852C212.167 264.855 212.161 264.858 212.155 264.86C212.149 264.863 212.153 264.86 212.171 264.858L207.9 237.185ZM239.771 260.543C237.438 245.254 223.135 234.834 207.9 237.185L212.171 264.858C212.189 264.855 212.191 264.856 212.183 264.856C212.175 264.855 212.166 264.854 212.157 264.852C212.148 264.849 212.143 264.847 212.14 264.846C212.138 264.845 212.137 264.844 212.137 264.844C212.137 264.844 212.135 264.843 212.132 264.839C212.128 264.835 212.122 264.828 212.114 264.816C212.107 264.803 212.1 264.789 212.095 264.775C212.089 264.761 212.089 264.756 212.091 264.766L239.771 260.543ZM253.126 274.203C242.807 269.601 240.005 262.081 239.771 260.543L212.091 264.766C213.765 275.742 222.712 291.297 241.721 299.775L253.126 274.203ZM267.199 311.125C273.535 297.041 267.238 280.497 253.126 274.203L241.721 299.775C241.733 299.781 241.731 299.781 241.72 299.773C241.709 299.766 241.699 299.756 241.689 299.746C241.671 299.727 241.667 299.715 241.666 299.713C241.665 299.711 241.661 299.699 241.661 299.675C241.662 299.662 241.663 299.649 241.666 299.638C241.668 299.626 241.67 299.625 241.664 299.639L267.199 311.125ZM449.503 162.293C433.384 127.598 408.855 99.4417 379.464 79.1362L363.548 102.173C388.953 119.724 410.151 144.047 424.11 174.091L449.503 162.293ZM255.384 204.845L245.862 194.582L225.335 213.625L234.856 223.888L255.384 204.845ZM184.65 87.0254C227.379 67.1732 296.001 53.5758 363.33 102.019L379.683 79.2904C301.245 22.8545 220.986 39.2693 172.852 61.6323L184.65 87.0254Z" fill="#314DAF" mask="url(#path-2-outside-1_9_2)"/>
</g>
<defs>
<clipPath id="clip0_9_2">
<rect width="512" height="512" fill="white"/>
</clipPath>
</defs>
</svg>
